/* XPM */
static char *f94759f994aa47e5ce9009fd143d592bjqdiLHtWGNXIC7Ao[] = {
/* columns rows colors chars-per-pixel */
"64 64 2 1 ",
"  c None",
". c gray94",
/* pixels */
"................................................................",
"................................................................",
"................................................................",
"................................................................",
"................................................................",
"................................................................",
"......                                                    ......",
"......                                                    ......",
"......                                                    ......",
"......                                                    ......",
"......                                                    ......",
"......                                                    ......",
"......                                                    ......",
"......                                                    ......",
"......                                                    ......",
"......                                                    ......",
"......                                                    ......",
"......                                                    ......",
"......                                                    ......",
"......                                                    ......",
"......                                                    ......",
"......                                                    ......",
"......                                                    ......",
"......                                                    ......",
"......                                                    ......",
"......                                                    ......",
"......                                                    ......",
"......                                                    ......",
"......                                                    ......",
"......                                                    ......",
"......                                                    ......",
"......                                                    ......",
"......                                                    ......",
"......                                                    ......",
"......                                                    ......",
"......                                                    ......",
"......                                                    ......",
"......                                                    ......",
"......                                                    ......",
"......                                                    ......",
"......                                                    ......",
"......                                                    ......",
"......                                                    ......",
"......                                                    ......",
"......                                                    ......",
"......                                                    ......",
"......                                                    ......",
"......                                                    ......",
"......                                                    ......",
"......                                                    ......",
"......                                                    ......",
"......                                                    ......",
"......                                                    ......",
"......                                                    ......",
"......                                                    ......",
"......                                                    ......",
"......                                                    ......",
"......                                                    ......",
"................................................................",
"................................................................",
"................................................................",
"................................................................",
"................................................................",
"................................................................"
};
