/* XPM */
static char *_72c45c721e94659b81ca18c79b37265sGGLFK1iCfBxYO8R[] = {
/* columns rows colors chars-per-pixel */
"64 64 2 1 ",
"  c None",
". c #09FF00",
/* pixels */
"................................................................",
"................................................................",
"................................................................",
"................................................................",
"................................................................",
"................................................................",
"......                                                    ......",
"......                                                    ......",
"......                                                    ......",
"......                                                    ......",
"......                                                    ......",
"......                                                    ......",
"......                                                    ......",
"......                                                    ......",
"......                                                    ......",
"......                                                    ......",
"......                                                    ......",
"......                                                    ......",
"......                                                    ......",
"......                                                    ......",
"......                                                    ......",
"......                                                    ......",
"......                                                    ......",
"......                                                    ......",
"......                                                    ......",
"......                                                    ......",
"......                                                    ......",
"......                                                    ......",
"......                                                    ......",
"......                                                    ......",
"......                                                    ......",
"......                                                    ......",
"......                                                    ......",
"......                                                    ......",
"......                                                    ......",
"......                                                    ......",
"......                                                    ......",
"......                                                    ......",
"......                                                    ......",
"......                                                    ......",
"......                                                    ......",
"......                                                    ......",
"......                                                    ......",
"......                                                    ......",
"......                                                    ......",
"......                                                    ......",
"......                                                    ......",
"......                                                    ......",
"......                                                    ......",
"......                                                    ......",
"......                                                    ......",
"......                                                    ......",
"......                                                    ......",
"......                                                    ......",
"......                                                    ......",
"......                                                    ......",
"......                                                    ......",
"......                                                    ......",
"................................................................",
"................................................................",
"................................................................",
"................................................................",
"................................................................",
"................................................................"
};
